<svg width="114" height="33" viewBox="0 0 114 33" fill="none" xmlns="http://www.w3.org/2000/svg">
<path fill-rule="evenodd" clip-rule="evenodd" d="M34.6833 11.1296L15.8003 22.2042C16.9804 23.2602 18.2594 24.1984 20.0128 24.1984C24.7994 24.1984 28.356 20.1646 31.3066 17.3047L29.061 28.702C24.8975 31.3717 19.6522 32.8668 14.5213 32.8668C6.30891 32.8668 0.686523 26.781 0.686523 19.7094C0.686523 10.0428 11.3899 0.156669 22.2904 0.156669C25.8805 0.156669 29.2899 1.71178 31.5847 4.14655C33.5523 6.24467 34.519 8.44452 34.6833 11.1296ZM31.3884 32.2221L37.6168 0.538676H50.1562C50.1071 1.1256 50.058 1.71252 50.058 2.28407C50.058 2.82708 50.206 3.34009 50.3696 3.85382C52.4026 1.82961 55.2543 0.142761 58.3849 0.142761C62.8926 0.142761 66.9579 3.07663 66.9579 7.25678C66.9579 7.76979 66.908 8.28352 66.8107 8.78189L62.1885 32.2221H49.3539L53.2556 12.4644C53.2883 12.2727 53.3047 12.097 53.3047 11.9068C53.3047 10.7622 52.2391 9.92573 50.9772 9.92573C49.6009 9.92573 48.6988 10.9232 48.4698 12.067L44.3228 32.2221H31.3884ZM63.6809 32.2221L69.9265 0.538676H82.4814V1.27196C82.4814 2.32798 82.6956 3.19372 83.3499 4.0741C84.0875 3.23763 84.907 2.4458 85.9407 1.88888C88.2027 0.700409 91.0708 0.143498 93.6763 0.143498C94.7255 0.143498 95.6284 0.40768 96.5786 0.803594C97.3645 2.84244 98.6436 4.41147 100.233 6.0105L95.0714 32.2228H82.0381L85.8908 12.6993C85.9407 12.4351 85.9562 12.1702 85.9562 11.9075C85.9562 10.7768 85.2995 9.76473 83.8913 9.76473C82.4487 9.76473 81.5147 10.9239 81.2841 12.0978L77.3006 32.2228H63.6809V32.2221ZM96.6277 32.2221L101.61 6.90478C103.84 8.59162 105.855 9.39809 108.807 9.39809C110.528 9.39809 112.184 9.04608 113.838 8.65017L109.2 32.2221H96.6277Z" fill="white"/>
</svg>
