<svg width="38" height="46" viewBox="0 0 38 46" fill="none" xmlns="http://www.w3.org/2000/svg">
<path fill-rule="evenodd" clip-rule="evenodd" d="M5.54411 19.0098C6.80762 18.687 8.0695 18.3789 9.39679 18.3789C11.7414 18.3789 13.8726 19.4642 15.8885 20.4324C14.6094 20.7991 13.2813 21.1803 11.9385 21.1803C9.52763 21.1811 7.46268 20.2568 5.54411 19.0098ZM2.29909 15.9442C1.21796 14.272 0.217773 12.5412 0.217773 10.5609C0.217773 7.67093 1.93926 5.44181 4.03692 3.40296C7.79063 5.92628 11.4307 7.42212 16.2164 7.42212C18.4466 7.42212 20.5933 6.87984 22.7081 6.27828C23.4777 7.6424 24.2317 9.07969 24.2317 10.6348C24.2317 13.5826 22.5438 16.0027 20.3643 18.1008C17.1348 16.1798 13.6927 14.5222 9.69283 14.5222C7.13557 14.5215 4.69279 15.2248 2.29909 15.9442ZM7.92147 1.05602C9.43114 0.49837 10.9383 0 12.5772 0C15.478 0 17.8389 0.777197 19.9873 2.52259C18.6747 3.10951 17.3466 3.60787 15.855 3.60787C12.8888 3.60787 10.2661 2.64041 7.92147 1.05602ZM13.8227 44.049L15.9694 33.2232C16.8224 34.045 19.0346 36.3919 20.5262 36.3919C21.6573 36.3919 21.8535 34.7636 21.8535 34.045C21.8535 32.9443 21.5755 31.9322 20.8215 31.0233C19.1654 29.0437 17.0342 27.283 17.0342 24.6287C17.0342 23.5426 17.2959 22.472 17.5756 21.4306C21.3612 19.9494 23.4442 17.5286 24.6071 14.0378H38.0002L36.1152 23.6312C35.1968 22.7647 34.1157 21.7533 32.6894 21.7533C31.4259 21.7533 30.4928 23.0004 30.4928 24.0271C30.4928 25.6108 31.3777 27.3862 32.5242 28.5739L34.6055 30.7167C35.6057 31.7427 36.0816 33.1068 36.0816 34.4555C36.0816 36.9942 34.4591 39.4136 32.6076 41.2337C29.4591 44.3139 26.2795 45.296 21.591 45.296C18.9037 45.2953 16.38 44.7676 13.8227 44.049Z" fill="white"/>
</svg>
