<svg width="36" height="36" viewBox="0 0 36 36" fill="none" xmlns="http://www.w3.org/2000/svg">
<path d="M32.3719 11.1356C32.2021 10.5297 31.8713 9.98126 31.4146 9.54843C30.9451 9.10229 30.3696 8.78315 29.7425 8.62114C27.3956 8.00253 17.9927 8.00254 17.9927 8.00254C14.0728 7.95794 10.1538 8.15409 6.25795 8.5899C5.63083 8.76388 5.05643 9.09014 4.58584 9.53968C4.12344 9.98458 3.78852 10.5332 3.61356 11.1343C3.19327 13.3985 2.98907 15.6974 3.0037 18.0002C2.9887 20.3009 3.19241 22.5992 3.61356 24.8661C3.78477 25.4648 4.11844 26.0109 4.58209 26.452C5.04573 26.8932 5.6231 27.2119 6.25795 27.3806C8.63615 27.9979 17.9927 27.9979 17.9927 27.9979C21.9177 28.0426 25.8416 27.8464 29.7425 27.4106C30.3696 27.2486 30.9451 26.9294 31.4146 26.4833C31.877 26.0421 32.2057 25.4935 32.3707 24.8961C32.8019 22.6329 33.0116 20.3329 32.9968 18.029C33.0292 15.7153 32.8198 13.4045 32.3719 11.1343V11.1356ZM15.0034 22.2792V13.7225L22.8266 18.0015L15.0034 22.2792Z" fill="#8D86C9"/>
</svg>
